<?xml version="1.0" encoding="utf-8"?>
<!-- Generator: Adobe Illustrator 16.0.0, SVG Export Plug-In . SVG Version: 6.00 Build 0)  -->
<!DOCTYPE svg PUBLIC "-//W3C//DTD SVG 1.1//EN" "http://www.w3.org/Graphics/SVG/1.1/DTD/svg11.dtd">
<svg version="1.1" id="Camada_1" xmlns="http://www.w3.org/2000/svg" xmlns:xlink="http://www.w3.org/1999/xlink" x="0px" y="0px"
	 width="100px" height="100px" viewBox="0 0 100 100" enable-background="new 0 0 100 100" xml:space="preserve">
<g>
	<g>
		<g>
			<g>
				<path fill="#777777" d="M49.896,49.887L28.831,95.107c12.987,6.05,26.49,6.398,39.771,1.026L49.896,49.887z"/>
			</g>
		</g>
		<g>
			<g>
				<path fill="#BDBDBD" d="M49.896,49.887L11.693,81.969c4.962,5.907,10.145,9.881,17.138,13.139L49.896,49.887z"/>
			</g>
		</g>
		<g>
			<g>
				<path fill="#F5F5F5" d="M49.896,49.887L0.129,46.427c-0.917,13.192,3.06,25.414,11.564,35.542L49.896,49.887z"/>
			</g>
		</g>
		<g>
			<g>
				<path fill="#333333" d="M49.896,49.887L49.876,0C23.426,0.01,1.963,20.041,0.129,46.427L49.896,49.887z"/>
			</g>
		</g>
		<g>
			<g>
				<path fill="#EB5757" d="M49.896,49.887l18.707,46.247c25.541-10.332,37.872-39.412,27.54-64.953
					C88.29,11.769,70.814-0.009,49.876,0L49.896,49.887z"/>
			</g>
		</g>
	</g>
	<g>
		<g>
		</g>
		<g>
		</g>
		<g>
		</g>
		<g>
		</g>
		<g>
		</g>
	</g>
</g>
</svg>
