<?xml version="1.0" encoding="utf-8"?>
<!-- Generator: Adobe Illustrator 16.0.0, SVG Export Plug-In . SVG Version: 6.00 Build 0)  -->
<!DOCTYPE svg PUBLIC "-//W3C//DTD SVG 1.1//EN" "http://www.w3.org/Graphics/SVG/1.1/DTD/svg11.dtd">
<svg version="1.1" id="Camada_1" xmlns="http://www.w3.org/2000/svg" xmlns:xlink="http://www.w3.org/1999/xlink" x="0px" y="0px"
	 width="16px" height="16px" viewBox="0 0 16 16" enable-background="new 0 0 16 16" xml:space="preserve">
<rect fill="none" width="16" height="16"/>
<g>
	<path d="M13.981,4H12v3c0,1.103-0.897,2-2,2H5v2.012C5,11.562,5.432,12,5.981,12h7L15,14.012v-9C15,4.462,14.531,4,13.981,4z"/>
</g>
<path d="M10,1H2C1.448,1,1,1.348,1,1.778V6v1.222V10l2-2h7c0.552,0,1-0.348,1-0.778V1.778C11,1.348,10.552,1,10,1z M9,6H3V5h6V6z
	 M9,4H3V3h6V4z"/>
</svg>
